<?xml version="1.0" encoding="UTF-8"?>
<svg xmlns="http://www.w3.org/2000/svg" version="1.1" viewBox="0 0 720 720">
  <defs>
    <style>
      .cls-1 {
        mix-blend-mode: difference;
      }

      .cls-2 {
        isolation: isolate;
      }
    </style>
  </defs>
  <!-- Generator: Adobe Illustrator 28.6.0, SVG Export Plug-In . SVG Version: 1.2.0 Build 709)  -->
  <g class="cls-2">
    <g id="Layer_6">
      <g id="ON_ARCHIVE" class="cls-1">
        <g>
          <g>
            <path d="M277.4,131.8c-1.2,1-2.4,1.6-3.7,1.6-2.7,0-4.1-1.6-4.1-4.9v-53.4h10.4v-3.1h-10.4v-25.4h-2c-1.2,3.2-3.7,6.8-7.3,10.8-3.7,4-7.6,7.4-11.6,10.3-4.1,2.9-7.4,4.3-9.8,4.3v3.1h6.8v53.8c0,4.3,1.2,7.9,3.5,10.8,2.4,2.9,5.9,4.3,10.7,4.3s10.7-1.4,14.1-4.3c3.4-2.9,5.8-6.3,7.3-10.4l-1.4-.7c-.5,1.1-1.3,2.2-2.5,3.2Z"/>
            <path d="M229.5,137.3c-1-2.1-1.6-5.4-1.6-10v-55.9l-22.2,4.2-8.9,1.6.3,2c.4,0,.9-.1,1.6-.1,2,0,3.3,1,4.1,2.9.8,1.9,1.1,5,1.1,9.2v35.3c-1.9,1.3-3.9,2.4-6.1,3.3-2.2.9-4.1,1.3-5.7,1.3s-3.2-.5-4.3-1.6c-1.1-1.1-1.6-2.7-1.6-4.9v-53.2l-22.2,4.2-8.9,1.6.3,2c.4,0,.9-.1,1.6-.1,2,0,3.3,1,4.1,2.9.8,1.9,1.1,5,1.1,9.2v35.3c0,5.6,1.6,9.9,4.7,12.9,3.1,3.1,7.5,4.6,13.3,4.6s14.7-4.2,23.9-12.7v11.3l.7.7,30.5-1v-2c-2.7,0-4.6-.9-5.6-3Z"/>
            <path d="M359.7,137.4c-1-2.1-1.6-5.5-1.6-10.1v-39.3c0-5.6-1.6-9.9-4.7-12.9-3.1-3.1-7.5-4.6-13.3-4.6s-15.5,4.7-25.3,14v-49.3l-22.2,4.2-8.9,1.6.3,2c.4,0,.9-.1,1.6-.1,2,0,3.3,1,4.1,2.9.8,1.9,1.1,5,1.1,9.2v72.3c0,4.6-.5,8-1.6,10.1-1,2.1-2.9,3.2-5.6,3.2v2h38.4v-2c-2.7,0-4.6-1.1-5.6-3.2-1-2.1-1.6-5.5-1.6-10.1v-38.1c1.8-1.4,4-2.7,6.6-4,2.6-1.2,4.8-1.8,6.7-1.8s3.2.5,4.3,1.6c1.1,1.1,1.6,2.7,1.6,4.9v37.4c0,4.6-.5,8-1.6,10.1-1,2.1-2.9,3.2-5.6,3.2v2h38.4v-2c-2.7,0-4.6-1.1-5.6-3.2Z"/>
            <path d="M63.4,103.2c-2.9-2.1-6.7-4.6-11.4-7.4-5.3-3.1-9.2-5.7-11.6-7.9-2.5-2.2-3.7-4.6-3.7-7.3s.6-4,1.7-5.3c1.1-1.3,2.7-1.9,4.7-1.9,3.4,0,7.2,1.9,11.6,5.6,4.3,3.8,8,8.6,11,14.4h2v-21.5h-.8l-4,3.2c-6.5-3.1-13-4.7-19.6-4.7s-13.3,2-17.9,6c-4.6,4-6.8,9.6-6.8,16.7s1,6.9,2.9,9.7c1.9,2.8,4.2,5.2,6.9,7.2,2.7,2,6.2,4.2,10.7,6.8,5.2,3,9,5.6,11.4,7.8,2.4,2.2,3.7,4.7,3.7,7.6s-.8,4.9-2.3,6.4-3.8,2.3-6.7,2.3c-4.6,0-9.1-2.3-13.6-7-4.4-4.7-7.7-9.9-9.7-15.7h-2.1v21.3c4.4,1.3,8.6,2.4,12.4,3.1,3.9.8,8.2,1.1,13.1,1.1,7.9,0,14.7-1.9,20.3-5.6,5.6-3.8,8.5-9.6,8.5-17.4s-1-7-3.1-10c-2.1-3-4.5-5.6-7.4-7.7Z"/>
            <path d="M115.2,70.6c-11.6,0-20.4,3.3-26.4,10-6,6.6-9,15.6-9,26.8s3,20.1,9,26.8c6,6.6,14.8,10,26.4,10s20.4-3.3,26.3-10c6-6.6,9-15.6,9-26.8s-3-20.1-9-26.8c-6-6.6-14.8-10-26.3-10ZM123,133.3c-1.6,5.2-4.3,7.8-7.8,7.8s-6.3-2.6-8-7.8c-1.6-5.2-2.5-13.9-2.5-26s.8-20.8,2.5-26c1.6-5.2,4.3-7.8,8-7.8s6.2,2.6,7.8,7.8c1.6,5.2,2.5,13.9,2.5,26s-.8,20.8-2.5,26Z"/>
            <path d="M619.5,88.3c-2.3-4.8-5.7-9-10.3-12.4-4.6-3.4-10.2-5.2-16.7-5.2s-12.7,1.6-17.9,4.9c-5.1,3.3-9.1,7.7-11.9,13.2-2.8,5.5-4.2,11.6-4.2,18.3s1.3,12.9,4,18.5c2.7,5.6,6.4,10,11.2,13.2,4.8,3.2,10.2,4.9,16.3,4.9,9.2,0,16.6-2.8,22-8.3,5.5-5.5,9-12.2,10.6-20.1l-1.8-.6c-1.5,2.8-4.1,5.2-7.8,7.3-3.7,2-8.1,3-13.2,3s-10.6-2.2-13.7-6.6c-3.1-4.4-4.8-10.1-5.2-16.9h41.9c0-4-1.1-8.4-3.4-13.2ZM580.8,97.9c0-6.3,1.1-11.9,3-16.8,1.9-4.9,4.6-7.3,8-7.3s5.3,2.5,6.7,7.4c1.4,4.9,2.1,10.5,2.2,16.7h-19.9Z"/>
            <path d="M700.3,131.1c-.8.8-1.6,1.4-2.4,1.8-.8.3-1.6.5-2.5.5-2.7,0-4.1-1.6-4.1-4.9v-38c0-3.8-1.2-7.2-3.7-10.2-2.5-3.1-6-5.4-10.4-7.1-4.5-1.7-9.6-2.5-15.5-2.5s-10.8.7-15.2,2.2c-4.4,1.5-7.8,3.4-10.2,5.9-2.4,2.4-3.6,5.1-3.6,8s1,6.4,3,8.7c2,2.3,5,3.5,9,3.5s6.7-.9,9.6-2.7c2.9-1.8,4.8-3.9,5.5-6.2-1.5-.3-2.8-1.2-3.9-2.8-1.1-1.6-1.6-3.4-1.6-5.4s.6-4.4,1.9-5.9c1.3-1.5,3.1-2.3,5.4-2.3s3.3.5,4.3,1.6c1,1.1,1.5,2.5,1.5,4.2v20.2c-12.5,3.5-22.4,7.3-29.7,11.5-7.2,4.2-10.9,9.6-10.9,16.2s1.5,9.2,4.5,12.2c3,3.1,7.5,4.6,13.6,4.6s8.3-1.1,12.2-3.4c3.9-2.3,7.4-4.9,10.5-8,.6,3.3,1.8,6,3.8,8.2,2,2.2,4.9,3.2,8.8,3.2s8.9-1.2,12.6-3.5c3.7-2.4,6.7-5.1,8.8-8.3l-1.3-1ZM667.2,128.9c-2.3,1.9-4.5,2.8-6.6,2.8s-4.1-.8-5.5-2.3c-1.4-1.5-2.1-3.4-2.1-5.8,0-3.8,1.4-7.6,4.3-11.6,2.9-4,6.2-7.1,10-9.3v26.1Z"/>
            <path d="M542.5,103.2c-2.9-2.1-6.7-4.6-11.4-7.4-5.3-3.1-9.2-5.7-11.6-7.9-2.5-2.2-3.7-4.6-3.7-7.3s.6-4,1.7-5.3c1.1-1.3,2.7-1.9,4.7-1.9,3.4,0,7.2,1.9,11.6,5.6,4.3,3.8,8,8.6,11,14.4h2v-21.5h-.8l-4,3.2c-6.5-3.1-13-4.7-19.6-4.7s-13.3,2-17.9,6c-4.6,4-6.8,9.6-6.8,16.7s1,6.9,2.9,9.7c.1.2.3.4.4.5-7.3,3.7-16,8.6-20.9,11.9,1.3-5.8,2.3-11.6,2.7-17h0s0,0,0,0c0-.6,0-1.1,0-1.6,0-2-.3-3.7-.8-5-.4-.8-.8-1.5-1.5-2-.9-.7-1.9-.9-2.9-.9-.4,0-.7,0-1.1,0h0s0,0,0,0c-1,.1-2.1.5-3.2,1.1-1.9,1-4,2.4-6.2,4.2-3.2,2.6-6.6,5.9-9.7,9.1-3,3.1-6.9,7.2-8.7,9.2h0s0,0,0,0c-3.4,3.8-6.8,7.7-9.9,10.9-1.5,1.6-2.9,3-4.2,4.2-1.3,1.2-2.4,2-3.3,2.6h0s0-.5,0-.5h0c0-.9.2-2.1.5-3.4.5-2.3,1.3-5.5,1.3-5.5,1.9-7,4.7-13.5,7.6-19.6.6-1.1,1.6-3.1,2.2-4.2.6-1.1,1.3-2.1,1.3-3.2v-.5c-.3-1.3-1.5-2.6-3.1-2.6h-.1c-2.3,0-4,1.5-5.4,3.8h0c-.8,1.2-1,1.6-1.5,2.6-1.2,2.5-2.4,5-3.4,7.6-4.2,2.6-5.1,3.2-13.6,9.6.9-4,1.5-7.1,1.5-9.5,0-2.3-.5-4-1.5-5.3-1.5-2-4.4-4.2-8.8-4.2-2.4,0-5.1.6-8.4,2.2-9.9,4.8-16.5,12.9-17.5,14.2,0-.4,0-.8.1-1.2h0c0,0,.1-1,.1-1,.3-2,.7-4,1-5.9,1.5-7.9,3.4-15.8,5.6-23.5,1.2-3.9,2.3-7.7,3.6-11.6.6-1.9,1.2-3.8,1.9-5.7l2.1-5.7c.4-.9.7-1.9,1-2.8l1.1-2.8,2.2-5.6c1.6-3.7,3.6-8.5,5.3-12.2v-.2c0,0,0,0,0,0,.2-.5.3-.9.3-1.4,0-1.6-1.2-2.8-3-3h-.5c-2.2,0-4.6,1.6-5.3,3.4-1.6,3.8-2.8,6.6-4.3,10.5l-2.2,5.8-1.1,2.9c-.4,1-.7,2-1,2.9l-2,5.9c-.7,2-1.2,3.9-1.9,5.9-1.3,3.9-2.3,7.9-3.4,11.9-2.1,8-3.9,16.1-5.2,24.3-.3,2-.7,4.1-.9,6.2l-.4,3.1h0s-.3,3.1-.3,3.1c-.1,1-.2,2.1-.3,3.1,0,1-.2,2.1-.2,3.1,0,0-.5,3.7-.5,8,0,5.6.9,12.3,5.4,12.4h.5s.1,0,.1,0c.9,0,1.8-.3,2.6-.7.7-.3,1.3-1.2,1.3-2,0-.4-.1-.7-.4-1-.5-.5-1-.9-1.4-1.5-.4-.6-.6-1.3-.8-1.9-.2-.8-.3-1.7-.3-2.6s.1-1.8.3-2.7c.4-2.6,1.4-5.1,2.7-7.4,4.4-8,11.6-17.6,20.9-19.9.5-.1,1.1-.2,1.6-.2,1.7,0,3.1.7,3.8,2.5.4,1,.5,2.1.5,3.2,0,.8,0,1.7-.2,2.5-.6,4.7-2.4,9.3-4.3,13.7-.6,1.3-1.3,2.6-2.1,3.8-3,4.7-7,8.6-10.8,12.6-4.1,4.3-10.8,13.6-11.7,16.4-.2.7-.3,1.4-.3,1.9,0,1,.3,1.7.8,2.2.5.5,1.3.8,2.2.8.6,0,1.2-.1,2-.3,3.4-1.1,6.1-3.7,8.4-6.3,7.6-8.4,12.3-18.1,17.5-28,1.6-3,4.7-6.1,8.3-9.3,2-1.8,5.1-4.1,7.3-5.7-.2.6-.4,1.3-.7,1.9h0s-2.5,7.5-3.1,14.1c0,.6-.1,1.2-.1,1.9v.3c0,0,0,.2,0,.2,0,0,0,0,0,0,0,1.7.2,3.3.7,4.6,0,0,0,.1,0,.2.2.5.5,1,.8,1.5,0,0,0,0,0,0h0s0,0,0,0h0c.3.4.8.8,1.3,1.1.5.3,1,.5,1.6.5h.4s0,0,0,0h.5s0,0,0,0h0c1,0,2-.3,3.1-.9,1.1-.5,2.2-1.3,3.4-2.3h0c1.9-1.6,4.1-3.9,6.6-6.7,2.5-2.8,5.3-6,8.2-9.4,2.1-2.3,7.2-8,11.4-12.3,1.7-1.7,3.4-3.4,5.1-4.9.6-.5,3.7-3,5.7-3.9.5-.2.9-.3,1.2-.3.3,0,.5,0,.6.3.1.2.2.6.2,1.2,0,1.4-.3,3.8-.7,6.2h0c0,.1,0,.1,0,.1,0,.4-.1.9-.2,1.3-.5,3.1-1.1,6-1.2,6.6-.2,1-.5,2.1-.7,3.1-.5,2.1-1,4.1-1.6,6.2l-.3.4c-24.7,19.6-39.2,44.9-45.1,63.8-1.5,4.7-2.6,9-3.1,12.7-.3,2.3-.5,4.4-.5,6.2s0,.9,0,1.4c0,.7,0,1.4.2,2.1.3,2.2.8,3.9,1.7,5.3.4.7,1,1.3,1.6,1.7.6.4,1.4.7,2.1.7h0s.6,0,.6,0h0c.7,0,1.3-.2,2-.5.7-.3,1.3-.6,2-1.1,1.4-.9,2.9-2.1,4.5-3.9,2.4-2.7,5.2-6.4,8.3-11.4,3.1-5,6.6-11.3,10.4-18.9,5.9-11.3,13.1-27.7,18.7-44.2,1.3-3.8,2.5-7.7,3.7-11.6l.3-.4c7.3-5.3,16.5-11,27.3-15.9.7.6,1.4,1.2,2.2,1.8,2.7,2,6.2,4.2,10.7,6.8,5.2,3,9,5.6,11.4,7.8,2.4,2.2,3.7,4.7,3.7,7.6s-.8,4.9-2.3,6.4c-1.6,1.6-3.8,2.3-6.7,2.3-4.6,0-9.1-2.3-13.6-7-4.4-4.7-7.7-9.9-9.7-15.7h-2.1v21.3c4.4,1.3,8.6,2.4,12.4,3.1,3.9.8,8.2,1.1,13.1,1.1,7.9,0,14.7-1.9,20.3-5.6,5.6-3.8,8.5-9.6,8.5-17.4s-1-7-3.1-10c-2.1-3-4.5-5.6-7.4-7.7ZM466.6,135.6h0c-5.4,16-12.2,31.7-17.8,42.6h0c-5.8,11.5-10.5,19.4-14.2,24.4-.7,1-2,2.5-3.3,3.9-.7.7-1.3,1.2-1.9,1.7-.3.2-.6.4-.8.5h-.5c0,.1,0,.1,0,.1h-.1s-.2-.3-.2-.3c0-.2-.2-.6-.2-1.2h0s0-.1,0-.1h0c0-.5-.1-1.1-.2-1.6,0-.3,0-.6,0-.9,0-1.5.2-3.3.5-5.4.5-3.1,1.3-7,2.7-11.1h0s0,0,0,0c4.1-13.1,12.8-29.9,26.7-45.3h0s0,0,0,0h0c1.8-2.1,3.8-4.1,5.8-6.1,1.4-1.3,3-2.8,4.8-4.4-.3,1.1-.7,2.2-1.1,3.2h0s0,0,0,0Z"/>
            <polygon points="390.6 139.8 390.4 139.8 390.4 139.8 390.6 139.8"/>
            <polygon points="390.4 139.7 390.5 139.7 390.4 139.7 390.4 139.7"/>
          </g>
          <g>
            <path d="M39.7,195.2h-11.7l-1.7,4.3h-7.8l11.7-26.1h7.5l11.6,26.1h-7.9l-1.7-4.3ZM33.8,180.7l-3.4,8.3h6.7l-3.3-8.3Z"/>
            <path d="M84,199.4h-8.1l-6.1-8.5h-2.6v8.5h-7.4v-26.1h12.7c1.7,0,3.1.2,4.4.7,1.3.5,2.3,1.2,3.2,2,.8.8,1.5,1.8,1.9,2.9.4,1.1.7,2.2.7,3.4s0,1.6-.3,2.3c-.2.7-.5,1.5-.9,2.1-.4.7-1,1.3-1.7,1.9s-1.6,1.1-2.7,1.6l6.8,8.8v.4ZM67.2,179.3v6.3h5.4c1,0,1.7-.3,2.2-.9.4-.6.7-1.3.7-2.1s0-.8-.2-1.2c-.1-.4-.3-.7-.5-1-.2-.3-.5-.5-.9-.7-.4-.2-.8-.3-1.3-.3h-5.4Z"/>
            <path d="M111.5,173.4v14.6c0,1.9-.3,3.6-.9,5.1-.6,1.5-1.4,2.7-2.4,3.8-1.1,1-2.4,1.8-3.9,2.3-1.5.5-3.2.8-5.1.8s-3.6-.3-5.1-.8c-1.5-.5-2.8-1.3-3.9-2.3-1.1-1-1.9-2.3-2.4-3.8-.6-1.5-.9-3.3-.9-5.3v-14.5h7.3v14.5c0,2.1.5,3.6,1.4,4.5s2.1,1.3,3.6,1.3,2.7-.5,3.6-1.4c.9-.9,1.4-2.4,1.4-4.4v-14.6h7.3Z"/>
            <path d="M132.5,180.6c-.9-.7-1.8-1.1-2.9-1.4-1-.3-2.1-.4-3.3-.4s-.9,0-1.3.1-.8.2-1.1.3c-.3.2-.6.4-.8.6-.2.3-.3.5-.3.9s.1.8.3,1.1c.2.3.5.5.9.6.4.2.8.3,1.4.4.5,0,1.1.2,1.8.2,1.3.1,2.6.4,3.8.7,1.3.4,2.4.9,3.4,1.5,1,.7,1.8,1.5,2.4,2.5.6,1,.9,2.3.9,3.8s-.3,2.8-1,3.8c-.6,1.1-1.5,1.9-2.6,2.6-1.1.7-2.3,1.2-3.7,1.5-1.4.3-2.8.5-4.3.5s-2.3,0-3.3-.2c-1-.1-2-.4-2.9-.7-.9-.3-1.8-.8-2.7-1.4-.9-.6-1.8-1.4-2.7-2.3l4.1-4.7c.7.6,1.3,1.1,2,1.5.7.4,1.3.7,2,.9.7.2,1.3.4,1.9.4.6,0,1.2.1,1.8.1,1.2,0,2.2-.2,3-.6.7-.4,1.1-1,1.1-1.7,0-1.3-1.4-2.1-4.3-2.4-1.4-.1-2.8-.3-4.1-.6-1.3-.3-2.4-.7-3.4-1.4-1-.6-1.7-1.5-2.3-2.5-.6-1-.9-2.4-.9-4s.3-2.6.9-3.5c.6-1,1.4-1.8,2.5-2.5,1-.7,2.2-1.1,3.5-1.4,1.3-.3,2.7-.5,4-.5,2,0,3.7.2,5.3.7,1.6.5,3.1,1.3,4.5,2.4l-3.7,4.7Z"/>
            <path d="M158,199.5v-9.9h-9.4v9.9h-7.4v-26.1h7.4v9.9h9.4v-9.9h7.3v26.1h-7.3Z"/>
            <path d="M198.1,186.4c0,2.2-.4,4.1-1.1,5.8-.7,1.7-1.7,3.1-3,4.3-1.3,1.2-2.8,2.1-4.6,2.7-1.8.6-3.7.9-5.8.9s-4.1-.3-5.9-.9c-1.8-.6-3.3-1.5-4.6-2.7-1.3-1.2-2.3-2.6-3-4.3-.7-1.7-1.1-3.6-1.1-5.8s.4-4,1.1-5.7c.7-1.7,1.7-3.1,3-4.3,1.3-1.2,2.8-2.1,4.6-2.7,1.8-.6,3.7-.9,5.9-.9s4.1.3,5.8.9c1.8.6,3.3,1.5,4.6,2.7,1.3,1.2,2.3,2.6,3,4.3.7,1.7,1.1,3.6,1.1,5.8ZM190.7,186.4c0-1.1-.2-2.2-.5-3.1-.3-.9-.8-1.7-1.4-2.3-.6-.6-1.4-1.1-2.2-1.5-.9-.3-1.8-.5-2.9-.5s-2,.2-2.9.5c-.9.4-1.6.9-2.2,1.5-.6.7-1.1,1.4-1.5,2.3-.3.9-.5,1.9-.5,3s.2,2.1.5,3c.3.9.8,1.7,1.5,2.3.6.6,1.4,1.1,2.2,1.5s1.8.5,2.9.5,2.1-.2,2.9-.5,1.6-.9,2.2-1.5,1.1-1.4,1.4-2.3c.3-.9.5-1.9.5-3Z"/>
            <path d="M226.1,199.4h-8.1l-6.1-8.5h-2.6v8.5h-7.4v-26.1h12.7c1.7,0,3.1.2,4.4.7,1.3.5,2.3,1.2,3.2,2,.8.8,1.5,1.8,1.9,2.9.4,1.1.7,2.2.7,3.4s0,1.6-.3,2.3c-.2.7-.5,1.5-.9,2.1-.4.7-1,1.3-1.7,1.9s-1.6,1.1-2.7,1.6l6.8,8.8v.4ZM209.3,179.3v6.3h5.4c1,0,1.7-.3,2.2-.9.4-.6.7-1.3.7-2.1s0-.8-.2-1.2c-.1-.4-.3-.7-.5-1-.2-.3-.5-.5-.9-.7-.4-.2-.8-.3-1.3-.3h-5.4Z"/>
            <path d="M240.6,173.4c2.3,0,4.3.3,6,1,1.7.7,3.1,1.6,4.3,2.7,1.1,1.2,2,2.5,2.5,4.1.6,1.6.8,3.2.8,5s-.3,3.5-.8,5.1c-.5,1.6-1.4,3-2.5,4.2-1.1,1.2-2.5,2.2-4.3,2.9-1.7.7-3.7,1.1-6.1,1.1h-11.2v-26.1h11.2ZM236.7,193.2h3.9c1.2,0,2.1-.2,2.9-.6.8-.4,1.5-.9,2-1.6.5-.7.9-1.4,1.1-2.3.2-.9.3-1.7.3-2.6s-.1-1.7-.4-2.6c-.2-.8-.6-1.5-1.1-2.1-.5-.6-1.2-1.1-2-1.4-.8-.3-1.8-.5-2.9-.5h-3.9v13.7Z"/>
            <path d="M279,199.4h-20.9v-26.1h20.4v6.2h-13.1v3.7h12.3v6h-12.3v3.9h13.6v6.2Z"/>
            <path d="M307.3,199.4h-8.1l-6.1-8.5h-2.6v8.5h-7.4v-26.1h12.7c1.7,0,3.1.2,4.4.7,1.3.5,2.3,1.2,3.2,2,.8.8,1.5,1.8,1.9,2.9.4,1.1.7,2.2.7,3.4s0,1.6-.3,2.3c-.2.7-.5,1.5-.9,2.1-.4.7-1,1.3-1.7,1.9-.7.6-1.6,1.1-2.7,1.6l6.8,8.8v.4ZM290.5,179.3v6.3h5.4c1,0,1.7-.3,2.2-.9.4-.6.7-1.3.7-2.1s0-.8-.2-1.2c-.1-.4-.3-.7-.5-1-.2-.3-.5-.5-.9-.7-.4-.2-.8-.3-1.3-.3h-5.4Z"/>
            <path d="M316.2,179.4h-7.6v-6.1h22.6v6.1h-7.7v20h-7.3v-20Z"/>
            <path d="M355.2,199.4h-20.9v-26.1h20.4v6.2h-13.1v3.7h12.3v6h-12.3v3.9h13.6v6.2Z"/>
            <path d="M380.2,199.4h-20.9v-26.1h20.4v6.2h-13.1v3.7h12.3v6h-12.3v3.9h13.6v6.2Z"/>
            <path d="M400.4,180.6c-.9-.7-1.8-1.1-2.9-1.4-1-.3-2.1-.4-3.3-.4s-.9,0-1.3.1-.8.2-1.1.3c-.3.2-.6.4-.8.6-.2.3-.3.5-.3.9s.1.8.3,1.1c.2.3.5.5.9.6.4.2.8.3,1.4.4.5,0,1.1.2,1.8.2,1.3.1,2.6.4,3.8.7,1.3.4,2.4.9,3.4,1.5,1,.7,1.8,1.5,2.4,2.5.6,1,.9,2.3.9,3.8s-.3,2.8-1,3.8c-.6,1.1-1.5,1.9-2.5,2.6-1.1.7-2.3,1.2-3.7,1.5-1.4.3-2.8.5-4.3.5s-2.3,0-3.3-.2c-1-.1-2-.4-2.9-.7-.9-.3-1.8-.8-2.7-1.4-.9-.6-1.8-1.4-2.7-2.3l4.1-4.7c.7.6,1.3,1.1,2,1.5.7.4,1.3.7,2,.9.7.2,1.3.4,1.9.4.6,0,1.2.1,1.8.1,1.2,0,2.2-.2,3-.6.7-.4,1.1-1,1.1-1.7,0-1.3-1.4-2.1-4.3-2.4-1.4-.1-2.8-.3-4.1-.6-1.3-.3-2.4-.7-3.4-1.4-1-.6-1.7-1.5-2.3-2.5-.6-1-.9-2.4-.9-4s.3-2.6.9-3.5c.6-1,1.4-1.8,2.5-2.5,1-.7,2.2-1.1,3.5-1.4,1.3-.3,2.7-.5,4-.5,2,0,3.7.2,5.3.7,1.6.5,3.1,1.3,4.5,2.4l-3.7,4.7Z"/>
          </g>
          <g>
            <path d="M514.3,196c-1.5,1.5-3.1,2.6-4.8,3.2-1.7.6-3.6.9-5.6.9s-4.7-.4-6.5-1.1c-1.8-.7-3.3-1.7-4.4-3-1.1-1.3-2-2.7-2.5-4.3s-.8-3.3-.8-5.1.3-3.4.8-5c.6-1.7,1.4-3.1,2.6-4.4,1.2-1.3,2.6-2.4,4.4-3.2,1.8-.8,3.9-1.2,6.4-1.2s3.7.3,5.4,1c1.7.7,3.3,1.7,4.8,3.2l-4.6,4.4c-1-.9-1.9-1.5-2.8-1.8-.9-.3-1.8-.5-2.7-.5-1.3,0-2.4.2-3.2.7-.9.5-1.6,1-2.1,1.8-.5.7-.9,1.5-1.2,2.4-.3.9-.4,1.8-.4,2.6s.1,1.7.4,2.5c.2.9.6,1.6,1.2,2.3s1.3,1.3,2.2,1.7,2,.7,3.3.7,1.9-.2,3.1-.6c1.1-.4,2.2-1.1,3.1-2.1l4.3,4.8Z"/>
            <path d="M546.1,186.4c0,2.2-.4,4.1-1.1,5.8-.7,1.7-1.7,3.1-3,4.3-1.3,1.2-2.8,2.1-4.6,2.7-1.8.6-3.7.9-5.8.9s-4.1-.3-5.9-.9c-1.8-.6-3.3-1.5-4.6-2.7-1.3-1.2-2.3-2.6-3-4.3-.7-1.7-1.1-3.6-1.1-5.8s.4-4,1.1-5.7c.7-1.7,1.7-3.1,3-4.3,1.3-1.2,2.8-2.1,4.6-2.7,1.8-.6,3.7-.9,5.9-.9s4.1.3,5.8.9c1.8.6,3.3,1.5,4.6,2.7,1.3,1.2,2.3,2.6,3,4.3.7,1.7,1.1,3.6,1.1,5.8ZM538.7,186.4c0-1.1-.2-2.2-.5-3.1-.3-.9-.8-1.7-1.4-2.3-.6-.6-1.4-1.1-2.2-1.5-.9-.3-1.8-.5-2.9-.5s-2,.2-2.9.5c-.9.4-1.6.9-2.2,1.5s-1.1,1.4-1.5,2.3c-.4.9-.5,1.9-.5,3s.2,2.1.5,3c.3.9.8,1.7,1.5,2.3s1.4,1.1,2.2,1.5c.9.4,1.8.5,2.9.5s2.1-.2,2.9-.5,1.6-.9,2.2-1.5c.6-.7,1.1-1.4,1.4-2.3.3-.9.5-1.9.5-3Z"/>
            <path d="M573.1,183.9l-6.7,7.9h-1.3l-6.5-7.9v15.5h-7.3v-26.1h7.7l6.9,8.8,6.8-8.8h7.7v26.1h-7.3v-15.6Z"/>
            <path d="M594.3,192.4v7.1h-7.4v-26.1h12.7c1.8,0,3.3.3,4.6.8,1.3.5,2.4,1.2,3.3,2.1.9.9,1.5,1.9,2,3,.4,1.1.7,2.4.7,3.6s-.2,2.6-.7,3.7c-.4,1.1-1.1,2.1-2,3-.9.9-2,1.5-3.3,2-1.3.5-2.8.8-4.6.8h-5.3ZM594.3,186.2h5.3c1.1,0,1.8-.3,2.4-.9.5-.6.8-1.4.8-2.2s-.3-1.7-.8-2.3c-.5-.7-1.3-1-2.3-1h-5.3v6.5Z"/>
            <path d="M632.7,195.2h-11.7l-1.7,4.3h-7.8l11.7-26.1h7.5l11.6,26.1h-7.9l-1.7-4.3ZM626.9,180.7l-3.4,8.3h6.7l-3.3-8.3Z"/>
            <path d="M663,187.6c0-.8,0-1.4-.1-2,0-.6,0-1,0-1.4,0-.4,0-.8,0-1v-9.8h7.4v26.1h-6.3l-10.9-14v5.7c.1,0,.1,8.4.1,8.4h-7.5v-26.1h6.3l11,14.3Z"/>
            <path d="M687.6,182.3l5.6-8.9h8.3v.3l-10.3,15.4v10.4h-7.4v-10.4l-9.9-15.4v-.3h8.3l5.4,8.9Z"/>
          </g>
        </g>
        <g>
          <g>
            <path d="M277.4,369.4c-1.2,1-2.4,1.6-3.7,1.6-2.7,0-4.1-1.6-4.1-4.9v-53.4h10.4v-3.1h-10.4v-25.4h-2c-1.2,3.2-3.7,6.8-7.3,10.8-3.7,4-7.6,7.4-11.6,10.3-4.1,2.9-7.4,4.3-9.8,4.3v3.1h6.8v53.8c0,4.3,1.2,7.9,3.5,10.8,2.4,2.9,5.9,4.3,10.7,4.3s10.7-1.4,14.1-4.3c3.4-2.9,5.8-6.3,7.3-10.4l-1.4-.7c-.5,1.1-1.3,2.2-2.5,3.2Z"/>
            <path d="M229.5,374.9c-1-2.1-1.6-5.4-1.6-10v-55.9l-22.2,4.2-8.9,1.6.3,2c.4,0,.9-.1,1.6-.1,2,0,3.3,1,4.1,2.9.8,1.9,1.1,5,1.1,9.2v35.3c-1.9,1.3-3.9,2.4-6.1,3.3-2.2.9-4.1,1.3-5.7,1.3s-3.2-.5-4.3-1.6c-1.1-1.1-1.6-2.7-1.6-4.9v-53.2l-22.2,4.2-8.9,1.6.3,2c.4,0,.9-.1,1.6-.1,2,0,3.3,1,4.1,2.9.8,1.9,1.1,5,1.1,9.2v35.3c0,5.6,1.6,9.9,4.7,12.9,3.1,3.1,7.5,4.6,13.3,4.6s14.7-4.2,23.9-12.7v11.3l.7.7,30.5-1v-2c-2.7,0-4.6-.9-5.6-3Z"/>
            <path d="M359.7,375c-1-2.1-1.6-5.5-1.6-10.1v-39.3c0-5.6-1.6-9.9-4.7-12.9-3.1-3.1-7.5-4.6-13.3-4.6s-15.5,4.7-25.3,14v-49.3l-22.2,4.2-8.9,1.6.3,2c.4,0,.9-.1,1.6-.1,2,0,3.3,1,4.1,2.9.8,1.9,1.1,5,1.1,9.2v72.3c0,4.6-.5,8-1.6,10.1-1,2.1-2.9,3.2-5.6,3.2v2h38.4v-2c-2.7,0-4.6-1.1-5.6-3.2-1-2.1-1.6-5.5-1.6-10.1v-38.1c1.8-1.4,4-2.7,6.6-4,2.6-1.2,4.8-1.8,6.7-1.8s3.2.5,4.3,1.6c1.1,1.1,1.6,2.7,1.6,4.9v37.4c0,4.6-.5,8-1.6,10.1-1,2.1-2.9,3.2-5.6,3.2v2h38.4v-2c-2.7,0-4.6-1.1-5.6-3.2Z"/>
            <path d="M63.4,340.8c-2.9-2.1-6.7-4.6-11.4-7.4-5.3-3.1-9.2-5.7-11.6-7.9-2.5-2.2-3.7-4.6-3.7-7.3s.6-4,1.7-5.3c1.1-1.3,2.7-1.9,4.7-1.9,3.4,0,7.2,1.9,11.6,5.6,4.3,3.8,8,8.6,11,14.4h2v-21.5h-.8l-4,3.2c-6.5-3.1-13-4.7-19.6-4.7s-13.3,2-17.9,6c-4.6,4-6.8,9.6-6.8,16.7s1,6.9,2.9,9.7c1.9,2.8,4.2,5.2,6.9,7.2,2.7,2,6.2,4.2,10.7,6.8,5.2,3,9,5.6,11.4,7.8,2.4,2.2,3.7,4.7,3.7,7.6s-.8,4.9-2.3,6.4c-1.6,1.6-3.8,2.3-6.7,2.3-4.6,0-9.1-2.3-13.6-7-4.4-4.7-7.7-9.9-9.7-15.7h-2.1v21.3c4.4,1.3,8.6,2.4,12.4,3.1,3.9.8,8.2,1.1,13.1,1.1,7.9,0,14.7-1.9,20.3-5.6,5.6-3.8,8.5-9.6,8.5-17.4s-1-7-3.1-10c-2.1-3-4.5-5.6-7.4-7.7Z"/>
            <path d="M115.2,308.1c-11.6,0-20.4,3.3-26.4,10-6,6.6-9,15.6-9,26.8s3,20.1,9,26.8c6,6.6,14.8,10,26.4,10s20.4-3.3,26.3-10c6-6.6,9-15.6,9-26.8s-3-20.1-9-26.8c-6-6.6-14.8-10-26.3-10ZM123,370.9c-1.6,5.2-4.3,7.8-7.8,7.8s-6.3-2.6-8-7.8c-1.6-5.2-2.5-13.9-2.5-26s.8-20.8,2.5-26c1.6-5.2,4.3-7.8,8-7.8s6.2,2.6,7.8,7.8c1.6,5.2,2.5,13.9,2.5,26s-.8,20.8-2.5,26Z"/>
            <path d="M619.5,325.8c-2.3-4.8-5.7-9-10.3-12.4-4.6-3.4-10.2-5.2-16.7-5.2s-12.7,1.6-17.9,4.9c-5.1,3.3-9.1,7.7-11.9,13.2-2.8,5.5-4.2,11.6-4.2,18.3s1.3,12.9,4,18.5c2.7,5.6,6.4,10,11.2,13.2,4.8,3.2,10.2,4.9,16.3,4.9,9.2,0,16.6-2.8,22-8.3,5.5-5.5,9-12.2,10.6-20.1l-1.8-.6c-1.5,2.8-4.1,5.2-7.8,7.3-3.7,2-8.1,3-13.2,3s-10.6-2.2-13.7-6.6c-3.1-4.4-4.8-10.1-5.2-16.9h41.9c0-4-1.1-8.4-3.4-13.2ZM580.8,335.5c0-6.3,1.1-11.9,3-16.8,1.9-4.9,4.6-7.3,8-7.3s5.3,2.5,6.7,7.4c1.4,4.9,2.1,10.5,2.2,16.7h-19.9Z"/>
            <path d="M700.3,368.7c-.8.8-1.6,1.4-2.4,1.8-.8.3-1.6.5-2.5.5-2.7,0-4.1-1.6-4.1-4.9v-38c0-3.8-1.2-7.2-3.7-10.2-2.5-3.1-6-5.4-10.4-7.1-4.5-1.7-9.6-2.5-15.5-2.5s-10.8.7-15.2,2.2c-4.4,1.5-7.8,3.4-10.2,5.9-2.4,2.4-3.6,5.1-3.6,8s1,6.4,3,8.7c2,2.3,5,3.5,9,3.5s6.7-.9,9.6-2.7c2.9-1.8,4.8-3.9,5.5-6.2-1.5-.3-2.8-1.2-3.9-2.8-1.1-1.6-1.6-3.4-1.6-5.4s.6-4.4,1.9-5.9c1.3-1.5,3.1-2.3,5.4-2.3s3.3.5,4.3,1.6c1,1.1,1.5,2.5,1.5,4.2v20.2c-12.5,3.5-22.4,7.3-29.7,11.5-7.2,4.2-10.9,9.6-10.9,16.2s1.5,9.2,4.5,12.2c3,3.1,7.5,4.6,13.6,4.6s8.3-1.1,12.2-3.4c3.9-2.3,7.4-4.9,10.5-8,.6,3.3,1.8,6,3.8,8.2,2,2.2,4.9,3.2,8.8,3.2s8.9-1.2,12.6-3.5c3.7-2.4,6.7-5.1,8.8-8.3l-1.3-1ZM667.2,366.4c-2.3,1.9-4.5,2.8-6.6,2.8s-4.1-.8-5.5-2.3c-1.4-1.5-2.1-3.4-2.1-5.8,0-3.8,1.4-7.6,4.3-11.6,2.9-4,6.2-7.1,10-9.3v26.1Z"/>
            <path d="M542.5,340.8c-2.9-2.1-6.7-4.6-11.4-7.4-5.3-3.1-9.2-5.7-11.6-7.9-2.5-2.2-3.7-4.6-3.7-7.3s.6-4,1.7-5.3c1.1-1.3,2.7-1.9,4.7-1.9,3.4,0,7.2,1.9,11.6,5.6,4.3,3.8,8,8.6,11,14.4h2v-21.5h-.8l-4,3.2c-6.5-3.1-13-4.7-19.6-4.7s-13.3,2-17.9,6c-4.6,4-6.8,9.6-6.8,16.7s1,6.9,2.9,9.7c.1.2.3.4.4.5-7.3,3.7-16,8.6-20.9,11.9,1.3-5.8,2.3-11.6,2.7-17h0s0,0,0,0c0-.6,0-1.1,0-1.6,0-2-.3-3.7-.8-5-.4-.8-.8-1.5-1.5-2-.9-.7-1.9-.9-2.9-.9-.4,0-.7,0-1.1,0h0s0,0,0,0c-1,.1-2.1.5-3.2,1.1-1.9,1-4,2.4-6.2,4.2-3.2,2.6-6.6,5.9-9.7,9.1-3,3.1-6.9,7.2-8.7,9.2h0s0,0,0,0c-3.4,3.8-6.8,7.7-9.9,10.9-1.5,1.6-2.9,3-4.2,4.2-1.3,1.2-2.4,2-3.3,2.6h0s0-.5,0-.5h0c0-.9.2-2.1.5-3.4.5-2.3,1.3-5.5,1.3-5.5,1.9-7,4.7-13.5,7.6-19.6.6-1.1,1.6-3.1,2.2-4.2.6-1.1,1.3-2.1,1.3-3.2v-.5c-.3-1.3-1.5-2.6-3.1-2.6h-.1c-2.3,0-4,1.5-5.4,3.8h0c-.8,1.2-1,1.6-1.5,2.6-1.2,2.5-2.4,5-3.4,7.6-4.2,2.6-5.1,3.2-13.6,9.6.9-4,1.5-7.1,1.5-9.5,0-2.3-.5-4-1.5-5.3-1.5-2-4.4-4.2-8.8-4.2-2.4,0-5.1.6-8.4,2.2-9.9,4.8-16.5,12.9-17.5,14.2,0-.4,0-.8.1-1.2h0c0,0,.1-1,.1-1,.3-2,.7-4,1-5.9,1.5-7.9,3.4-15.8,5.6-23.5,1.2-3.9,2.3-7.7,3.6-11.6.6-1.9,1.2-3.8,1.9-5.7l2.1-5.7c.4-.9.7-1.9,1-2.8l1.1-2.8,2.2-5.6c1.6-3.7,3.6-8.5,5.3-12.2v-.2c0,0,0,0,0,0,.2-.5.3-.9.3-1.4,0-1.6-1.2-2.8-3-3h-.5c-2.2,0-4.6,1.6-5.3,3.4-1.6,3.8-2.8,6.6-4.3,10.5l-2.2,5.8-1.1,2.9c-.4,1-.7,2-1,2.9l-2,5.9c-.7,2-1.2,3.9-1.9,5.9-1.3,3.9-2.3,7.9-3.4,11.9-2.1,8-3.9,16.1-5.2,24.3-.3,2-.7,4.1-.9,6.2l-.4,3.1h0s-.3,3.1-.3,3.1c-.1,1-.2,2.1-.3,3.1,0,1-.2,2.1-.2,3.1,0,0-.5,3.7-.5,8,0,5.6.9,12.3,5.4,12.4h.5s.1,0,.1,0c.9,0,1.8-.3,2.6-.7.7-.3,1.3-1.2,1.3-2,0-.4-.1-.7-.4-1-.5-.5-1-.9-1.4-1.5-.4-.6-.6-1.3-.8-1.9-.2-.8-.3-1.7-.3-2.6s.1-1.8.3-2.7c.4-2.6,1.4-5.1,2.7-7.4,4.4-8,11.6-17.6,20.9-19.9.5-.1,1.1-.2,1.6-.2,1.7,0,3.1.7,3.8,2.5.4,1,.5,2.1.5,3.2,0,.8,0,1.7-.2,2.5-.6,4.7-2.4,9.3-4.3,13.7-.6,1.3-1.3,2.6-2.1,3.8-3,4.7-7,8.6-10.8,12.6-4.1,4.3-10.8,13.6-11.7,16.4-.2.7-.3,1.4-.3,1.9,0,1,.3,1.7.8,2.2.5.5,1.3.8,2.2.8.6,0,1.2-.1,2-.3,3.4-1.1,6.1-3.7,8.4-6.3,7.6-8.4,12.3-18.1,17.5-28,1.6-3,4.7-6.1,8.3-9.3,2-1.8,5.1-4.1,7.3-5.7-.2.6-.4,1.3-.7,1.9h0s-2.5,7.5-3.1,14.1c0,.6-.1,1.2-.1,1.9v.3c0,0,0,.2,0,.2,0,0,0,0,0,0,0,1.7.2,3.3.7,4.6,0,0,0,.1,0,.2.2.5.5,1,.8,1.5,0,0,0,0,0,0h0s0,0,0,0h0c.3.4.8.8,1.3,1.1.5.3,1,.5,1.6.5h.4s0,0,0,0h.5s0,0,0,0h0c1,0,2-.3,3.1-.9,1.1-.5,2.2-1.3,3.4-2.3h0c1.9-1.6,4.1-3.9,6.6-6.7,2.5-2.8,5.3-6,8.2-9.4,2.1-2.3,7.2-8,11.4-12.3,1.7-1.7,3.4-3.4,5.1-4.9.6-.5,3.7-3,5.7-3.9.5-.2.9-.3,1.2-.3.3,0,.5,0,.6.3.1.2.2.6.2,1.2,0,1.4-.3,3.8-.7,6.2h0c0,.1,0,.1,0,.1,0,.4-.1.9-.2,1.3-.5,3.1-1.1,6-1.2,6.6-.2,1-.5,2.1-.7,3.1-.5,2.1-1,4.1-1.6,6.2l-.3.4c-24.7,19.6-39.2,44.9-45.1,63.8-1.5,4.7-2.6,9-3.1,12.7-.3,2.3-.5,4.4-.5,6.2s0,.9,0,1.4c0,.7,0,1.4.2,2.1.3,2.2.8,3.9,1.7,5.3.4.7,1,1.3,1.6,1.7.6.4,1.4.7,2.1.7h0s.6,0,.6,0h0c.7,0,1.3-.2,2-.5.7-.3,1.3-.6,2-1.1,1.4-.9,2.9-2.1,4.5-3.9,2.4-2.7,5.2-6.4,8.3-11.4,3.1-5,6.6-11.3,10.4-18.9,5.9-11.3,13.1-27.7,18.7-44.2,1.3-3.8,2.5-7.7,3.7-11.6l.3-.4c7.3-5.3,16.5-11,27.3-15.9.7.6,1.4,1.2,2.2,1.8,2.7,2,6.2,4.2,10.7,6.8,5.2,3,9,5.6,11.4,7.8,2.4,2.2,3.7,4.7,3.7,7.6s-.8,4.9-2.3,6.4c-1.6,1.6-3.8,2.3-6.7,2.3-4.6,0-9.1-2.3-13.6-7-4.4-4.7-7.7-9.9-9.7-15.7h-2.1v21.3c4.4,1.3,8.6,2.4,12.4,3.1,3.9.8,8.2,1.1,13.1,1.1,7.9,0,14.7-1.9,20.3-5.6,5.6-3.8,8.5-9.6,8.5-17.4s-1-7-3.1-10c-2.1-3-4.5-5.6-7.4-7.7ZM466.6,373.1h0c-5.4,16-12.2,31.7-17.8,42.6h0c-5.8,11.5-10.5,19.4-14.2,24.4-.7,1-2,2.5-3.3,3.9-.7.7-1.3,1.2-1.9,1.7-.3.2-.6.4-.8.5h-.5c0,.1,0,.1,0,.1h-.1s-.2-.3-.2-.3c0-.2-.2-.6-.2-1.2h0s0-.1,0-.1h0c0-.5-.1-1.1-.2-1.6,0-.3,0-.6,0-.9,0-1.5.2-3.3.5-5.4.5-3.1,1.3-7,2.7-11.1h0s0,0,0,0c4.1-13.1,12.8-29.9,26.7-45.3h0s0,0,0,0h0c1.8-2.1,3.8-4.1,5.8-6.1,1.4-1.3,3-2.8,4.8-4.4-.3,1.1-.7,2.2-1.1,3.2h0s0,0,0,0Z"/>
            <polygon points="390.6 377.3 390.4 377.3 390.4 377.3 390.6 377.3"/>
            <polygon points="390.4 377.3 390.5 377.3 390.4 377.3 390.4 377.3"/>
          </g>
          <g>
            <path d="M39.7,432.7h-11.7l-1.7,4.3h-7.8l11.7-26.1h7.5l11.6,26.1h-7.9l-1.7-4.3ZM33.8,418.2l-3.4,8.3h6.7l-3.3-8.3Z"/>
            <path d="M84,437h-8.1l-6.1-8.5h-2.6v8.5h-7.4v-26.1h12.7c1.7,0,3.1.2,4.4.7,1.3.5,2.3,1.2,3.2,2,.8.8,1.5,1.8,1.9,2.9.4,1.1.7,2.2.7,3.4s0,1.6-.3,2.3c-.2.7-.5,1.5-.9,2.1-.4.7-1,1.3-1.7,1.9s-1.6,1.1-2.7,1.6l6.8,8.8v.4ZM67.2,416.8v6.3h5.4c1,0,1.7-.3,2.2-.9.4-.6.7-1.3.7-2.1s0-.8-.2-1.2c-.1-.4-.3-.7-.5-1-.2-.3-.5-.5-.9-.7-.4-.2-.8-.3-1.3-.3h-5.4Z"/>
            <path d="M111.5,411v14.6c0,1.9-.3,3.6-.9,5.1-.6,1.5-1.4,2.7-2.4,3.8-1.1,1-2.4,1.8-3.9,2.3-1.5.5-3.2.8-5.1.8s-3.6-.3-5.1-.8c-1.5-.5-2.8-1.3-3.9-2.3-1.1-1-1.9-2.3-2.4-3.8-.6-1.5-.9-3.3-.9-5.3v-14.5h7.3v14.5c0,2.1.5,3.6,1.4,4.5.9.9,2.1,1.3,3.6,1.3s2.7-.5,3.6-1.4c.9-.9,1.4-2.4,1.4-4.4v-14.6h7.3Z"/>
            <path d="M132.5,418.2c-.9-.7-1.8-1.1-2.9-1.4-1-.3-2.1-.4-3.3-.4s-.9,0-1.3.1c-.4,0-.8.2-1.1.3-.3.2-.6.4-.8.6-.2.3-.3.5-.3.9s.1.8.3,1.1c.2.3.5.5.9.6.4.2.8.3,1.4.4.5,0,1.1.2,1.8.2,1.3.1,2.6.4,3.8.7,1.3.4,2.4.9,3.4,1.5,1,.7,1.8,1.5,2.4,2.5.6,1,.9,2.3.9,3.8s-.3,2.8-1,3.8c-.6,1.1-1.5,1.9-2.6,2.6-1.1.7-2.3,1.2-3.7,1.5-1.4.3-2.8.5-4.3.5s-2.3,0-3.3-.2c-1-.1-2-.4-2.9-.7-.9-.3-1.8-.8-2.7-1.4-.9-.6-1.8-1.4-2.7-2.3l4.1-4.7c.7.6,1.3,1.1,2,1.5.7.4,1.3.7,2,.9.7.2,1.3.4,1.9.4.6,0,1.2.1,1.8.1,1.2,0,2.2-.2,3-.6.7-.4,1.1-1,1.1-1.7,0-1.3-1.4-2.1-4.3-2.4-1.4-.1-2.8-.3-4.1-.6-1.3-.3-2.4-.7-3.4-1.4-1-.6-1.7-1.5-2.3-2.5-.6-1-.9-2.4-.9-4s.3-2.6.9-3.5c.6-1,1.4-1.8,2.5-2.5,1-.7,2.2-1.1,3.5-1.4,1.3-.3,2.7-.5,4-.5,2,0,3.7.2,5.3.7,1.6.5,3.1,1.3,4.5,2.4l-3.7,4.7Z"/>
            <path d="M158,437v-9.9h-9.4v9.9h-7.4v-26.1h7.4v9.9h9.4v-9.9h7.3v26.1h-7.3Z"/>
            <path d="M198.1,424c0,2.2-.4,4.1-1.1,5.8-.7,1.7-1.7,3.1-3,4.3-1.3,1.2-2.8,2.1-4.6,2.7-1.8.6-3.7.9-5.8.9s-4.1-.3-5.9-.9c-1.8-.6-3.3-1.5-4.6-2.7-1.3-1.2-2.3-2.6-3-4.3-.7-1.7-1.1-3.6-1.1-5.8s.4-4,1.1-5.7c.7-1.7,1.7-3.1,3-4.3,1.3-1.2,2.8-2.1,4.6-2.7,1.8-.6,3.7-.9,5.9-.9s4.1.3,5.8.9c1.8.6,3.3,1.5,4.6,2.7,1.3,1.2,2.3,2.6,3,4.3.7,1.7,1.1,3.6,1.1,5.8ZM190.7,424c0-1.1-.2-2.2-.5-3.1-.3-.9-.8-1.7-1.4-2.3-.6-.6-1.4-1.1-2.2-1.5-.9-.3-1.8-.5-2.9-.5s-2,.2-2.9.5c-.9.4-1.6.9-2.2,1.5-.6.7-1.1,1.4-1.5,2.3-.3.9-.5,1.9-.5,3s.2,2.1.5,3c.3.9.8,1.7,1.5,2.3.6.6,1.4,1.1,2.2,1.5s1.8.5,2.9.5,2.1-.2,2.9-.5c.9-.4,1.6-.9,2.2-1.5.6-.7,1.1-1.4,1.4-2.3.3-.9.5-1.9.5-3Z"/>
            <path d="M226.1,437h-8.1l-6.1-8.5h-2.6v8.5h-7.4v-26.1h12.7c1.7,0,3.1.2,4.4.7,1.3.5,2.3,1.2,3.2,2,.8.8,1.5,1.8,1.9,2.9.4,1.1.7,2.2.7,3.4s0,1.6-.3,2.3c-.2.7-.5,1.5-.9,2.1-.4.7-1,1.3-1.7,1.9s-1.6,1.1-2.7,1.6l6.8,8.8v.4ZM209.3,416.8v6.3h5.4c1,0,1.7-.3,2.2-.9.4-.6.7-1.3.7-2.1s0-.8-.2-1.2c-.1-.4-.3-.7-.5-1-.2-.3-.5-.5-.9-.7-.4-.2-.8-.3-1.3-.3h-5.4Z"/>
            <path d="M240.6,410.9c2.3,0,4.3.3,6,1,1.7.7,3.1,1.6,4.3,2.7,1.1,1.2,2,2.5,2.5,4.1.6,1.6.8,3.2.8,5s-.3,3.5-.8,5.1c-.5,1.6-1.4,3-2.5,4.2-1.1,1.2-2.5,2.2-4.3,2.9-1.7.7-3.7,1.1-6.1,1.1h-11.2v-26.1h11.2ZM236.7,430.8h3.9c1.2,0,2.1-.2,2.9-.6.8-.4,1.5-.9,2-1.6.5-.7.9-1.4,1.1-2.3.2-.9.3-1.7.3-2.6s-.1-1.7-.4-2.6c-.2-.8-.6-1.5-1.1-2.1-.5-.6-1.2-1.1-2-1.4-.8-.3-1.8-.5-2.9-.5h-3.9v13.7Z"/>
            <path d="M279,437h-20.9v-26.1h20.4v6.2h-13.1v3.7h12.3v6h-12.3v3.9h13.6v6.2Z"/>
            <path d="M307.3,437h-8.1l-6.1-8.5h-2.6v8.5h-7.4v-26.1h12.7c1.7,0,3.1.2,4.4.7,1.3.5,2.3,1.2,3.2,2,.8.8,1.5,1.8,1.9,2.9.4,1.1.7,2.2.7,3.4s0,1.6-.3,2.3c-.2.7-.5,1.5-.9,2.1-.4.7-1,1.3-1.7,1.9-.7.6-1.6,1.1-2.7,1.6l6.8,8.8v.4ZM290.5,416.8v6.3h5.4c1,0,1.7-.3,2.2-.9.4-.6.7-1.3.7-2.1s0-.8-.2-1.2c-.1-.4-.3-.7-.5-1-.2-.3-.5-.5-.9-.7-.4-.2-.8-.3-1.3-.3h-5.4Z"/>
            <path d="M316.2,417h-7.6v-6.1h22.6v6.1h-7.7v20h-7.3v-20Z"/>
            <path d="M355.2,437h-20.9v-26.1h20.4v6.2h-13.1v3.7h12.3v6h-12.3v3.9h13.6v6.2Z"/>
            <path d="M380.2,437h-20.9v-26.1h20.4v6.2h-13.1v3.7h12.3v6h-12.3v3.9h13.6v6.2Z"/>
            <path d="M400.4,418.2c-.9-.7-1.8-1.1-2.9-1.4-1-.3-2.1-.4-3.3-.4s-.9,0-1.3.1c-.4,0-.8.2-1.1.3-.3.2-.6.4-.8.6-.2.3-.3.5-.3.9s.1.8.3,1.1c.2.3.5.5.9.6.4.2.8.3,1.4.4.5,0,1.1.2,1.8.2,1.3.1,2.6.4,3.8.7,1.3.4,2.4.9,3.4,1.5,1,.7,1.8,1.5,2.4,2.5.6,1,.9,2.3.9,3.8s-.3,2.8-1,3.8c-.6,1.1-1.5,1.9-2.5,2.6-1.1.7-2.3,1.2-3.7,1.5-1.4.3-2.8.5-4.3.5s-2.3,0-3.3-.2c-1-.1-2-.4-2.9-.7-.9-.3-1.8-.8-2.7-1.4-.9-.6-1.8-1.4-2.7-2.3l4.1-4.7c.7.6,1.3,1.1,2,1.5.7.4,1.3.7,2,.9.7.2,1.3.4,1.9.4.6,0,1.2.1,1.8.1,1.2,0,2.2-.2,3-.6.7-.4,1.1-1,1.1-1.7,0-1.3-1.4-2.1-4.3-2.4-1.4-.1-2.8-.3-4.1-.6-1.3-.3-2.4-.7-3.4-1.4-1-.6-1.7-1.5-2.3-2.5-.6-1-.9-2.4-.9-4s.3-2.6.9-3.5c.6-1,1.4-1.8,2.5-2.5,1-.7,2.2-1.1,3.5-1.4,1.3-.3,2.7-.5,4-.5,2,0,3.7.2,5.3.7,1.6.5,3.1,1.3,4.5,2.4l-3.7,4.7Z"/>
          </g>
          <g>
            <path d="M514.3,433.6c-1.5,1.5-3.1,2.6-4.8,3.2-1.7.6-3.6.9-5.6.9s-4.7-.4-6.5-1.1c-1.8-.7-3.3-1.7-4.4-3-1.1-1.3-2-2.7-2.5-4.3-.5-1.6-.8-3.3-.8-5.1s.3-3.4.8-5c.6-1.7,1.4-3.1,2.6-4.4,1.2-1.3,2.6-2.4,4.4-3.2,1.8-.8,3.9-1.2,6.4-1.2s3.7.3,5.4,1c1.7.7,3.3,1.7,4.8,3.2l-4.6,4.4c-1-.9-1.9-1.5-2.8-1.8-.9-.3-1.8-.5-2.7-.5-1.3,0-2.4.2-3.2.7-.9.5-1.6,1-2.1,1.8-.5.7-.9,1.5-1.2,2.4-.3.9-.4,1.8-.4,2.6s.1,1.7.4,2.5c.2.9.6,1.6,1.2,2.3.5.7,1.3,1.3,2.2,1.7s2,.7,3.3.7,1.9-.2,3.1-.6c1.1-.4,2.2-1.1,3.1-2.1l4.3,4.8Z"/>
            <path d="M546.1,424c0,2.2-.4,4.1-1.1,5.8-.7,1.7-1.7,3.1-3,4.3-1.3,1.2-2.8,2.1-4.6,2.7-1.8.6-3.7.9-5.8.9s-4.1-.3-5.9-.9c-1.8-.6-3.3-1.5-4.6-2.7-1.3-1.2-2.3-2.6-3-4.3-.7-1.7-1.1-3.6-1.1-5.8s.4-4,1.1-5.7c.7-1.7,1.7-3.1,3-4.3,1.3-1.2,2.8-2.1,4.6-2.7,1.8-.6,3.7-.9,5.9-.9s4.1.3,5.8.9c1.8.6,3.3,1.5,4.6,2.7,1.3,1.2,2.3,2.6,3,4.3.7,1.7,1.1,3.6,1.1,5.8ZM538.7,424c0-1.1-.2-2.2-.5-3.1-.3-.9-.8-1.7-1.4-2.3-.6-.6-1.4-1.1-2.2-1.5-.9-.3-1.8-.5-2.9-.5s-2,.2-2.9.5c-.9.4-1.6.9-2.2,1.5s-1.1,1.4-1.5,2.3c-.4.9-.5,1.9-.5,3s.2,2.1.5,3c.3.9.8,1.7,1.5,2.3s1.4,1.1,2.2,1.5c.9.4,1.8.5,2.9.5s2.1-.2,2.9-.5,1.6-.9,2.2-1.5,1.1-1.4,1.4-2.3c.3-.9.5-1.9.5-3Z"/>
            <path d="M573.1,421.4l-6.7,7.9h-1.3l-6.5-7.9v15.5h-7.3v-26.1h7.7l6.9,8.8,6.8-8.8h7.7v26.1h-7.3v-15.6Z"/>
            <path d="M594.3,429.9v7.1h-7.4v-26.1h12.7c1.8,0,3.3.3,4.6.8,1.3.5,2.4,1.2,3.3,2.1.9.9,1.5,1.9,2,3,.4,1.1.7,2.4.7,3.6s-.2,2.6-.7,3.7c-.4,1.1-1.1,2.1-2,3-.9.9-2,1.5-3.3,2-1.3.5-2.8.8-4.6.8h-5.3ZM594.3,423.7h5.3c1.1,0,1.8-.3,2.4-.9.5-.6.8-1.4.8-2.2s-.3-1.7-.8-2.3c-.5-.7-1.3-1-2.3-1h-5.3v6.5Z"/>
            <path d="M632.7,432.7h-11.7l-1.7,4.3h-7.8l11.7-26.1h7.5l11.6,26.1h-7.9l-1.7-4.3ZM626.9,418.2l-3.4,8.3h6.7l-3.3-8.3Z"/>
            <path d="M663,425.2c0-.8,0-1.4-.1-2,0-.6,0-1,0-1.4,0-.4,0-.8,0-1v-9.8h7.4v26.1h-6.3l-10.9-14v5.7c.1,0,.1,8.4.1,8.4h-7.5v-26.1h6.3l11,14.3Z"/>
            <path d="M687.6,419.9l5.6-8.9h8.3v.3l-10.3,15.4v10.4h-7.4v-10.4l-9.9-15.4v-.3h8.3l5.4,8.9Z"/>
          </g>
        </g>
        <g>
          <g>
            <path d="M277.4,607c-1.2,1-2.4,1.6-3.7,1.6-2.7,0-4.1-1.6-4.1-4.9v-53.4h10.4v-3.1h-10.4v-25.4h-2c-1.2,3.2-3.7,6.8-7.3,10.8-3.7,4-7.6,7.4-11.6,10.3-4.1,2.9-7.4,4.3-9.8,4.3v3.1h6.8v53.8c0,4.3,1.2,7.9,3.5,10.8,2.4,2.9,5.9,4.3,10.7,4.3s10.7-1.4,14.1-4.3c3.4-2.9,5.8-6.3,7.3-10.4l-1.4-.7c-.5,1.1-1.3,2.2-2.5,3.2Z"/>
            <path d="M229.5,612.5c-1-2.1-1.6-5.4-1.6-10v-55.9l-22.2,4.2-8.9,1.6.3,2c.4,0,.9-.1,1.6-.1,2,0,3.3,1,4.1,2.9.8,1.9,1.1,5,1.1,9.2v35.3c-1.9,1.3-3.9,2.4-6.1,3.3-2.2.9-4.1,1.3-5.7,1.3s-3.2-.5-4.3-1.6c-1.1-1.1-1.6-2.7-1.6-4.9v-53.2l-22.2,4.2-8.9,1.6.3,2c.4,0,.9-.1,1.6-.1,2,0,3.3,1,4.1,2.9.8,1.9,1.1,5,1.1,9.2v35.3c0,5.6,1.6,9.9,4.7,12.9,3.1,3.1,7.5,4.6,13.3,4.6s14.7-4.2,23.9-12.7v11.3l.7.7,30.5-1v-2c-2.7,0-4.6-.9-5.6-3Z"/>
            <path d="M359.7,612.5c-1-2.1-1.6-5.5-1.6-10.1v-39.3c0-5.6-1.6-9.9-4.7-12.9-3.1-3.1-7.5-4.6-13.3-4.6s-15.5,4.7-25.3,14v-49.3l-22.2,4.2-8.9,1.6.3,2c.4,0,.9-.1,1.6-.1,2,0,3.3,1,4.1,2.9.8,1.9,1.1,5,1.1,9.2v72.3c0,4.6-.5,8-1.6,10.1-1,2.1-2.9,3.2-5.6,3.2v2h38.4v-2c-2.7,0-4.6-1.1-5.6-3.2-1-2.1-1.6-5.5-1.6-10.1v-38.1c1.8-1.4,4-2.7,6.6-4,2.6-1.2,4.8-1.8,6.7-1.8s3.2.5,4.3,1.6c1.1,1.1,1.6,2.7,1.6,4.9v37.4c0,4.6-.5,8-1.6,10.1-1,2.1-2.9,3.2-5.6,3.2v2h38.4v-2c-2.7,0-4.6-1.1-5.6-3.2Z"/>
            <path d="M63.4,578.4c-2.9-2.1-6.7-4.6-11.4-7.4-5.3-3.1-9.2-5.7-11.6-7.9-2.5-2.2-3.7-4.6-3.7-7.3s.6-4,1.7-5.3c1.1-1.3,2.7-1.9,4.7-1.9,3.4,0,7.2,1.9,11.6,5.6,4.3,3.8,8,8.6,11,14.4h2v-21.5h-.8l-4,3.2c-6.5-3.1-13-4.7-19.6-4.7s-13.3,2-17.9,6c-4.6,4-6.8,9.6-6.8,16.7s1,6.9,2.9,9.7c1.9,2.8,4.2,5.2,6.9,7.2,2.7,2,6.2,4.2,10.7,6.8,5.2,3,9,5.6,11.4,7.8,2.4,2.2,3.7,4.7,3.7,7.6s-.8,4.9-2.3,6.4-3.8,2.3-6.7,2.3c-4.6,0-9.1-2.3-13.6-7-4.4-4.7-7.7-9.9-9.7-15.7h-2.1v21.3c4.4,1.3,8.6,2.4,12.4,3.1,3.9.8,8.2,1.1,13.1,1.1,7.9,0,14.7-1.9,20.3-5.6,5.6-3.8,8.5-9.6,8.5-17.4s-1-7-3.1-10c-2.1-3-4.5-5.6-7.4-7.7Z"/>
            <path d="M115.2,545.7c-11.6,0-20.4,3.3-26.4,10-6,6.6-9,15.6-9,26.8s3,20.1,9,26.8c6,6.6,14.8,10,26.4,10s20.4-3.3,26.3-10c6-6.6,9-15.6,9-26.8s-3-20.1-9-26.8c-6-6.6-14.8-10-26.3-10ZM123,608.4c-1.6,5.2-4.3,7.8-7.8,7.8s-6.3-2.6-8-7.8c-1.6-5.2-2.5-13.9-2.5-26s.8-20.8,2.5-26c1.6-5.2,4.3-7.8,8-7.8s6.2,2.6,7.8,7.8c1.6,5.2,2.5,13.9,2.5,26s-.8,20.8-2.5,26Z"/>
            <path d="M619.5,563.4c-2.3-4.8-5.7-9-10.3-12.4-4.6-3.4-10.2-5.2-16.7-5.2s-12.7,1.6-17.9,4.9c-5.1,3.3-9.1,7.7-11.9,13.2-2.8,5.5-4.2,11.6-4.2,18.3s1.3,12.9,4,18.5c2.7,5.6,6.4,10,11.2,13.2,4.8,3.2,10.2,4.9,16.3,4.9,9.2,0,16.6-2.8,22-8.3,5.5-5.5,9-12.2,10.6-20.1l-1.8-.6c-1.5,2.8-4.1,5.2-7.8,7.3-3.7,2-8.1,3-13.2,3s-10.6-2.2-13.7-6.6c-3.1-4.4-4.8-10.1-5.2-16.9h41.9c0-4-1.1-8.4-3.4-13.2ZM580.8,573.1c0-6.3,1.1-11.9,3-16.8,1.9-4.9,4.6-7.3,8-7.3s5.3,2.5,6.7,7.4c1.4,4.9,2.1,10.5,2.2,16.7h-19.9Z"/>
            <path d="M700.3,606.3c-.8.8-1.6,1.4-2.4,1.8-.8.3-1.6.5-2.5.5-2.7,0-4.1-1.6-4.1-4.9v-38c0-3.8-1.2-7.2-3.7-10.2-2.5-3.1-6-5.4-10.4-7.1-4.5-1.7-9.6-2.5-15.5-2.5s-10.8.7-15.2,2.2c-4.4,1.5-7.8,3.4-10.2,5.9-2.4,2.4-3.6,5.1-3.6,8s1,6.4,3,8.7c2,2.3,5,3.5,9,3.5s6.7-.9,9.6-2.7c2.9-1.8,4.8-3.9,5.5-6.2-1.5-.3-2.8-1.2-3.9-2.8-1.1-1.6-1.6-3.4-1.6-5.4s.6-4.4,1.9-5.9c1.3-1.5,3.1-2.3,5.4-2.3s3.3.5,4.3,1.6c1,1.1,1.5,2.5,1.5,4.2v20.2c-12.5,3.5-22.4,7.3-29.7,11.5-7.2,4.2-10.9,9.6-10.9,16.2s1.5,9.2,4.5,12.2c3,3.1,7.5,4.6,13.6,4.6s8.3-1.1,12.2-3.4c3.9-2.3,7.4-4.9,10.5-8,.6,3.3,1.8,6,3.8,8.2,2,2.2,4.9,3.2,8.8,3.2s8.9-1.2,12.6-3.5c3.7-2.4,6.7-5.1,8.8-8.3l-1.3-1ZM667.2,604c-2.3,1.9-4.5,2.8-6.6,2.8s-4.1-.8-5.5-2.3c-1.4-1.5-2.1-3.4-2.1-5.8,0-3.8,1.4-7.6,4.3-11.6,2.9-4,6.2-7.1,10-9.3v26.1Z"/>
            <path d="M542.5,578.4c-2.9-2.1-6.7-4.6-11.4-7.4-5.3-3.1-9.2-5.7-11.6-7.9-2.5-2.2-3.7-4.6-3.7-7.3s.6-4,1.7-5.3c1.1-1.3,2.7-1.9,4.7-1.9,3.4,0,7.2,1.9,11.6,5.6,4.3,3.8,8,8.6,11,14.4h2v-21.5h-.8l-4,3.2c-6.5-3.1-13-4.7-19.6-4.7s-13.3,2-17.9,6c-4.6,4-6.8,9.6-6.8,16.7s1,6.9,2.9,9.7c.1.2.3.4.4.5-7.3,3.7-16,8.6-20.9,11.9,1.3-5.8,2.3-11.6,2.7-17h0s0,0,0,0c0-.6,0-1.1,0-1.6,0-2-.3-3.7-.8-5-.4-.8-.8-1.5-1.5-2-.9-.7-1.9-.9-2.9-.9-.4,0-.7,0-1.1,0h0s0,0,0,0c-1,.1-2.1.5-3.2,1.1-1.9,1-4,2.4-6.2,4.2-3.2,2.6-6.6,5.9-9.7,9.1-3,3.1-6.9,7.2-8.7,9.2h0s0,0,0,0c-3.4,3.8-6.8,7.7-9.9,10.9-1.5,1.6-2.9,3-4.2,4.2-1.3,1.2-2.4,2-3.3,2.6h0s0-.5,0-.5h0c0-.9.2-2.1.5-3.4.5-2.3,1.3-5.5,1.3-5.5,1.9-7,4.7-13.5,7.6-19.6.6-1.1,1.6-3.1,2.2-4.2.6-1.1,1.3-2.1,1.3-3.2v-.5c-.3-1.3-1.5-2.6-3.1-2.6h-.1c-2.3,0-4,1.5-5.4,3.8h0c-.8,1.2-1,1.6-1.5,2.6-1.2,2.5-2.4,5-3.4,7.6-4.2,2.6-5.1,3.2-13.6,9.6.9-4,1.5-7.1,1.5-9.5,0-2.3-.5-4-1.5-5.3-1.5-2-4.4-4.2-8.8-4.2-2.4,0-5.1.6-8.4,2.2-9.9,4.8-16.5,12.9-17.5,14.2,0-.4,0-.8.1-1.2h0c0,0,.1-1,.1-1,.3-2,.7-4,1-5.9,1.5-7.9,3.4-15.8,5.6-23.5,1.2-3.9,2.3-7.7,3.6-11.6.6-1.9,1.2-3.8,1.9-5.7l2.1-5.7c.4-.9.7-1.9,1-2.8l1.1-2.8,2.2-5.6c1.6-3.7,3.6-8.5,5.3-12.2v-.2c0,0,0,0,0,0,.2-.5.3-.9.3-1.4,0-1.6-1.2-2.8-3-3h-.5c-2.2,0-4.6,1.6-5.3,3.4-1.6,3.8-2.8,6.6-4.3,10.5l-2.2,5.8-1.1,2.9c-.4,1-.7,2-1,2.9l-2,5.9c-.7,2-1.2,3.9-1.9,5.9-1.3,3.9-2.3,7.9-3.4,11.9-2.1,8-3.9,16.1-5.2,24.3-.3,2-.7,4.1-.9,6.2l-.4,3.1h0s-.3,3.1-.3,3.1c-.1,1-.2,2.1-.3,3.1,0,1-.2,2.1-.2,3.1,0,0-.5,3.7-.5,8,0,5.6.9,12.3,5.4,12.4h.5s.1,0,.1,0c.9,0,1.8-.3,2.6-.7.7-.3,1.3-1.2,1.3-2,0-.4-.1-.7-.4-1-.5-.5-1-.9-1.4-1.5-.4-.6-.6-1.3-.8-1.9-.2-.8-.3-1.7-.3-2.6s.1-1.8.3-2.7c.4-2.6,1.4-5.1,2.7-7.4,4.4-8,11.6-17.6,20.9-19.9.5-.1,1.1-.2,1.6-.2,1.7,0,3.1.7,3.8,2.5.4,1,.5,2.1.5,3.2,0,.8,0,1.7-.2,2.5-.6,4.7-2.4,9.3-4.3,13.7-.6,1.3-1.3,2.6-2.1,3.8-3,4.7-7,8.6-10.8,12.6-4.1,4.3-10.8,13.6-11.7,16.4-.2.7-.3,1.4-.3,1.9,0,1,.3,1.7.8,2.2.5.5,1.3.8,2.2.8.6,0,1.2-.1,2-.3,3.4-1.1,6.1-3.7,8.4-6.3,7.6-8.4,12.3-18.1,17.5-28,1.6-3,4.7-6.1,8.3-9.3,2-1.8,5.1-4.1,7.3-5.7-.2.6-.4,1.3-.7,1.9h0s-2.5,7.5-3.1,14.1c0,.6-.1,1.2-.1,1.9v.3c0,0,0,.2,0,.2,0,0,0,0,0,0,0,1.7.2,3.3.7,4.6,0,0,0,.1,0,.2.2.5.5,1,.8,1.5,0,0,0,0,0,0h0s0,0,0,0h0c.3.4.8.8,1.3,1.1.5.3,1,.5,1.6.5h.4s0,0,0,0h.5s0,0,0,0h0c1,0,2-.3,3.1-.9,1.1-.5,2.2-1.3,3.4-2.3h0c1.9-1.6,4.1-3.9,6.6-6.7,2.5-2.8,5.3-6,8.2-9.4,2.1-2.3,7.2-8,11.4-12.3,1.7-1.7,3.4-3.4,5.1-4.9.6-.5,3.7-3,5.7-3.9.5-.2.9-.3,1.2-.3.3,0,.5,0,.6.3.1.2.2.6.2,1.2,0,1.4-.3,3.8-.7,6.2h0c0,.1,0,.1,0,.1,0,.4-.1.9-.2,1.3-.5,3.1-1.1,6-1.2,6.6-.2,1-.5,2.1-.7,3.1-.5,2.1-1,4.1-1.6,6.2l-.3.4c-24.7,19.6-39.2,44.9-45.1,63.8-1.5,4.7-2.6,9-3.1,12.7-.3,2.3-.5,4.4-.5,6.2s0,.9,0,1.4c0,.7,0,1.4.2,2.1.3,2.2.8,3.9,1.7,5.3.4.7,1,1.3,1.6,1.7.6.4,1.4.7,2.1.7h0s.6,0,.6,0h0c.7,0,1.3-.2,2-.5.7-.3,1.3-.6,2-1.1,1.4-.9,2.9-2.1,4.5-3.9,2.4-2.7,5.2-6.4,8.3-11.4,3.1-5,6.6-11.3,10.4-18.9,5.9-11.3,13.1-27.7,18.7-44.2,1.3-3.8,2.5-7.7,3.7-11.6l.3-.4c7.3-5.3,16.5-11,27.3-15.9.7.6,1.4,1.2,2.2,1.8,2.7,2,6.2,4.2,10.7,6.8,5.2,3,9,5.6,11.4,7.8,2.4,2.2,3.7,4.7,3.7,7.6s-.8,4.9-2.3,6.4c-1.6,1.6-3.8,2.3-6.7,2.3-4.6,0-9.1-2.3-13.6-7-4.4-4.7-7.7-9.9-9.7-15.7h-2.1v21.3c4.4,1.3,8.6,2.4,12.4,3.1,3.9.8,8.2,1.1,13.1,1.1,7.9,0,14.7-1.9,20.3-5.6,5.6-3.8,8.5-9.6,8.5-17.4s-1-7-3.1-10c-2.1-3-4.5-5.6-7.4-7.7ZM466.6,610.7h0c-5.4,16-12.2,31.7-17.8,42.6h0c-5.8,11.5-10.5,19.4-14.2,24.4-.7,1-2,2.5-3.3,3.9-.7.7-1.3,1.2-1.9,1.7-.3.2-.6.4-.8.5h-.5c0,.1,0,.1,0,.1h-.1s-.2-.3-.2-.3c0-.2-.2-.6-.2-1.2h0s0-.1,0-.1h0c0-.5-.1-1.1-.2-1.6,0-.3,0-.6,0-.9,0-1.5.2-3.3.5-5.4.5-3.1,1.3-7,2.7-11.1h0s0,0,0,0c4.1-13.1,12.8-29.9,26.7-45.3h0s0,0,0,0h0c1.8-2.1,3.8-4.1,5.8-6.1,1.4-1.3,3-2.8,4.8-4.4-.3,1.1-.7,2.2-1.1,3.2h0s0,0,0,0Z"/>
            <polygon points="390.6 614.9 390.4 614.9 390.4 614.9 390.6 614.9"/>
            <polygon points="390.4 614.9 390.5 614.9 390.4 614.9 390.4 614.9"/>
          </g>
          <g>
            <path d="M39.7,670.3h-11.7l-1.7,4.3h-7.8l11.7-26.1h7.5l11.6,26.1h-7.9l-1.7-4.3ZM33.8,655.8l-3.4,8.3h6.7l-3.3-8.3Z"/>
            <path d="M84,674.6h-8.1l-6.1-8.5h-2.6v8.5h-7.4v-26.1h12.7c1.7,0,3.1.2,4.4.7,1.3.5,2.3,1.2,3.2,2,.8.8,1.5,1.8,1.9,2.9.4,1.1.7,2.2.7,3.4s0,1.6-.3,2.3c-.2.7-.5,1.5-.9,2.1-.4.7-1,1.3-1.7,1.9s-1.6,1.1-2.7,1.6l6.8,8.8v.4ZM67.2,654.4v6.3h5.4c1,0,1.7-.3,2.2-.9.4-.6.7-1.3.7-2.1s0-.8-.2-1.2c-.1-.4-.3-.7-.5-1-.2-.3-.5-.5-.9-.7-.4-.2-.8-.3-1.3-.3h-5.4Z"/>
            <path d="M111.5,648.5v14.6c0,1.9-.3,3.6-.9,5.1-.6,1.5-1.4,2.7-2.4,3.8-1.1,1-2.4,1.8-3.9,2.3-1.5.5-3.2.8-5.1.8s-3.6-.3-5.1-.8c-1.5-.5-2.8-1.3-3.9-2.3-1.1-1-1.9-2.3-2.4-3.8-.6-1.5-.9-3.3-.9-5.3v-14.5h7.3v14.5c0,2.1.5,3.6,1.4,4.5.9.9,2.1,1.3,3.6,1.3s2.7-.5,3.6-1.4c.9-.9,1.4-2.4,1.4-4.4v-14.6h7.3Z"/>
            <path d="M132.5,655.7c-.9-.7-1.8-1.1-2.9-1.4-1-.3-2.1-.4-3.3-.4s-.9,0-1.3.1c-.4,0-.8.2-1.1.3-.3.2-.6.4-.8.6-.2.3-.3.5-.3.9s.1.8.3,1.1c.2.3.5.5.9.6.4.2.8.3,1.4.4.5,0,1.1.2,1.8.2,1.3.1,2.6.4,3.8.7,1.3.4,2.4.9,3.4,1.5,1,.7,1.8,1.5,2.4,2.5.6,1,.9,2.3.9,3.8s-.3,2.8-1,3.8c-.6,1.1-1.5,1.9-2.6,2.6-1.1.7-2.3,1.2-3.7,1.5-1.4.3-2.8.5-4.3.5s-2.3,0-3.3-.2c-1-.1-2-.4-2.9-.7-.9-.3-1.8-.8-2.7-1.4-.9-.6-1.8-1.4-2.7-2.3l4.1-4.7c.7.6,1.3,1.1,2,1.5.7.4,1.3.7,2,.9.7.2,1.3.4,1.9.4.6,0,1.2.1,1.8.1,1.2,0,2.2-.2,3-.6.7-.4,1.1-1,1.1-1.7,0-1.3-1.4-2.1-4.3-2.4-1.4-.1-2.8-.3-4.1-.6-1.3-.3-2.4-.7-3.4-1.4-1-.6-1.7-1.5-2.3-2.5-.6-1-.9-2.4-.9-4s.3-2.6.9-3.5c.6-1,1.4-1.8,2.5-2.5,1-.7,2.2-1.1,3.5-1.4,1.3-.3,2.7-.5,4-.5,2,0,3.7.2,5.3.7,1.6.5,3.1,1.3,4.5,2.4l-3.7,4.7Z"/>
            <path d="M158,674.6v-9.9h-9.4v9.9h-7.4v-26.1h7.4v9.9h9.4v-9.9h7.3v26.1h-7.3Z"/>
            <path d="M198.1,661.5c0,2.2-.4,4.1-1.1,5.8-.7,1.7-1.7,3.1-3,4.3-1.3,1.2-2.8,2.1-4.6,2.7-1.8.6-3.7.9-5.8.9s-4.1-.3-5.9-.9c-1.8-.6-3.3-1.5-4.6-2.7-1.3-1.2-2.3-2.6-3-4.3-.7-1.7-1.1-3.6-1.1-5.8s.4-4,1.1-5.7c.7-1.7,1.7-3.1,3-4.3,1.3-1.2,2.8-2.1,4.6-2.7,1.8-.6,3.7-.9,5.9-.9s4.1.3,5.8.9c1.8.6,3.3,1.5,4.6,2.7,1.3,1.2,2.3,2.6,3,4.3.7,1.7,1.1,3.6,1.1,5.8ZM190.7,661.5c0-1.1-.2-2.2-.5-3.1-.3-.9-.8-1.7-1.4-2.3-.6-.6-1.4-1.1-2.2-1.5-.9-.3-1.8-.5-2.9-.5s-2,.2-2.9.5c-.9.4-1.6.9-2.2,1.5-.6.7-1.1,1.4-1.5,2.3-.3.9-.5,1.9-.5,3s.2,2.1.5,3c.3.9.8,1.7,1.5,2.3.6.6,1.4,1.1,2.2,1.5.9.4,1.8.5,2.9.5s2.1-.2,2.9-.5c.9-.4,1.6-.9,2.2-1.5.6-.7,1.1-1.4,1.4-2.3.3-.9.5-1.9.5-3Z"/>
            <path d="M226.1,674.6h-8.1l-6.1-8.5h-2.6v8.5h-7.4v-26.1h12.7c1.7,0,3.1.2,4.4.7,1.3.5,2.3,1.2,3.2,2,.8.8,1.5,1.8,1.9,2.9.4,1.1.7,2.2.7,3.4s0,1.6-.3,2.3c-.2.7-.5,1.5-.9,2.1-.4.7-1,1.3-1.7,1.9s-1.6,1.1-2.7,1.6l6.8,8.8v.4ZM209.3,654.4v6.3h5.4c1,0,1.7-.3,2.2-.9.4-.6.7-1.3.7-2.1s0-.8-.2-1.2c-.1-.4-.3-.7-.5-1-.2-.3-.5-.5-.9-.7-.4-.2-.8-.3-1.3-.3h-5.4Z"/>
            <path d="M240.6,648.5c2.3,0,4.3.3,6,1,1.7.7,3.1,1.6,4.3,2.7,1.1,1.2,2,2.5,2.5,4.1.6,1.6.8,3.2.8,5s-.3,3.5-.8,5.1c-.5,1.6-1.4,3-2.5,4.2s-2.5,2.2-4.3,2.9c-1.7.7-3.7,1.1-6.1,1.1h-11.2v-26.1h11.2ZM236.7,668.3h3.9c1.2,0,2.1-.2,2.9-.6.8-.4,1.5-.9,2-1.6.5-.7.9-1.4,1.1-2.3.2-.9.3-1.7.3-2.6s-.1-1.7-.4-2.6c-.2-.8-.6-1.5-1.1-2.1-.5-.6-1.2-1.1-2-1.4-.8-.3-1.8-.5-2.9-.5h-3.9v13.7Z"/>
            <path d="M279,674.6h-20.9v-26.1h20.4v6.2h-13.1v3.7h12.3v6h-12.3v3.9h13.6v6.2Z"/>
            <path d="M307.3,674.6h-8.1l-6.1-8.5h-2.6v8.5h-7.4v-26.1h12.7c1.7,0,3.1.2,4.4.7,1.3.5,2.3,1.2,3.2,2,.8.8,1.5,1.8,1.9,2.9.4,1.1.7,2.2.7,3.4s0,1.6-.3,2.3c-.2.7-.5,1.5-.9,2.1-.4.7-1,1.3-1.7,1.9-.7.6-1.6,1.1-2.7,1.6l6.8,8.8v.4ZM290.5,654.4v6.3h5.4c1,0,1.7-.3,2.2-.9.4-.6.7-1.3.7-2.1s0-.8-.2-1.2c-.1-.4-.3-.7-.5-1-.2-.3-.5-.5-.9-.7-.4-.2-.8-.3-1.3-.3h-5.4Z"/>
            <path d="M316.2,654.6h-7.6v-6.1h22.6v6.1h-7.7v20h-7.3v-20Z"/>
            <path d="M355.2,674.6h-20.9v-26.1h20.4v6.2h-13.1v3.7h12.3v6h-12.3v3.9h13.6v6.2Z"/>
            <path d="M380.2,674.6h-20.9v-26.1h20.4v6.2h-13.1v3.7h12.3v6h-12.3v3.9h13.6v6.2Z"/>
            <path d="M400.4,655.7c-.9-.7-1.8-1.1-2.9-1.4-1-.3-2.1-.4-3.3-.4s-.9,0-1.3.1c-.4,0-.8.2-1.1.3-.3.2-.6.4-.8.6-.2.3-.3.5-.3.9s.1.8.3,1.1c.2.3.5.5.9.6.4.2.8.3,1.4.4.5,0,1.1.2,1.8.2,1.3.1,2.6.4,3.8.7,1.3.4,2.4.9,3.4,1.5,1,.7,1.8,1.5,2.4,2.5.6,1,.9,2.3.9,3.8s-.3,2.8-1,3.8c-.6,1.1-1.5,1.9-2.5,2.6-1.1.7-2.3,1.2-3.7,1.5-1.4.3-2.8.5-4.3.5s-2.3,0-3.3-.2c-1-.1-2-.4-2.9-.7-.9-.3-1.8-.8-2.7-1.4-.9-.6-1.8-1.4-2.7-2.3l4.1-4.7c.7.6,1.3,1.1,2,1.5.7.4,1.3.7,2,.9.7.2,1.3.4,1.9.4s1.2.1,1.8.1c1.2,0,2.2-.2,3-.6.7-.4,1.1-1,1.1-1.7,0-1.3-1.4-2.1-4.3-2.4-1.4-.1-2.8-.3-4.1-.6-1.3-.3-2.4-.7-3.4-1.4-1-.6-1.7-1.5-2.3-2.5-.6-1-.9-2.4-.9-4s.3-2.6.9-3.5c.6-1,1.4-1.8,2.5-2.5,1-.7,2.2-1.1,3.5-1.4,1.3-.3,2.7-.5,4-.5,2,0,3.7.2,5.3.7,1.6.5,3.1,1.3,4.5,2.4l-3.7,4.7Z"/>
          </g>
          <g>
            <path d="M514.3,671.2c-1.5,1.5-3.1,2.6-4.8,3.2-1.7.6-3.6.9-5.6.9s-4.7-.4-6.5-1.1c-1.8-.7-3.3-1.7-4.4-3-1.1-1.3-2-2.7-2.5-4.3s-.8-3.3-.8-5.1.3-3.4.8-5c.6-1.7,1.4-3.1,2.6-4.4,1.2-1.3,2.6-2.4,4.4-3.2,1.8-.8,3.9-1.2,6.4-1.2s3.7.3,5.4,1c1.7.7,3.3,1.7,4.8,3.2l-4.6,4.4c-1-.9-1.9-1.5-2.8-1.8-.9-.3-1.8-.5-2.7-.5-1.3,0-2.4.2-3.2.7-.9.5-1.6,1-2.1,1.8-.5.7-.9,1.5-1.2,2.4-.3.9-.4,1.8-.4,2.6s.1,1.7.4,2.5c.2.9.6,1.6,1.2,2.3s1.3,1.3,2.2,1.7c.9.4,2,.7,3.3.7s1.9-.2,3.1-.6c1.1-.4,2.2-1.1,3.1-2.1l4.3,4.8Z"/>
            <path d="M546.1,661.5c0,2.2-.4,4.1-1.1,5.8-.7,1.7-1.7,3.1-3,4.3-1.3,1.2-2.8,2.1-4.6,2.7-1.8.6-3.7.9-5.8.9s-4.1-.3-5.9-.9c-1.8-.6-3.3-1.5-4.6-2.7-1.3-1.2-2.3-2.6-3-4.3-.7-1.7-1.1-3.6-1.1-5.8s.4-4,1.1-5.7c.7-1.7,1.7-3.1,3-4.3,1.3-1.2,2.8-2.1,4.6-2.7,1.8-.6,3.7-.9,5.9-.9s4.1.3,5.8.9c1.8.6,3.3,1.5,4.6,2.7,1.3,1.2,2.3,2.6,3,4.3s1.1,3.6,1.1,5.8ZM538.7,661.5c0-1.1-.2-2.2-.5-3.1-.3-.9-.8-1.7-1.4-2.3-.6-.6-1.4-1.1-2.2-1.5-.9-.3-1.8-.5-2.9-.5s-2,.2-2.9.5c-.9.4-1.6.9-2.2,1.5-.6.7-1.1,1.4-1.5,2.3-.4.9-.5,1.9-.5,3s.2,2.1.5,3c.3.9.8,1.7,1.5,2.3.6.6,1.4,1.1,2.2,1.5.9.4,1.8.5,2.9.5s2.1-.2,2.9-.5c.9-.4,1.6-.9,2.2-1.5s1.1-1.4,1.4-2.3c.3-.9.5-1.9.5-3Z"/>
            <path d="M573.1,659l-6.7,7.9h-1.3l-6.5-7.9v15.5h-7.3v-26.1h7.7l6.9,8.8,6.8-8.8h7.7v26.1h-7.3v-15.6Z"/>
            <path d="M594.3,667.5v7.1h-7.4v-26.1h12.7c1.8,0,3.3.3,4.6.8,1.3.5,2.4,1.2,3.3,2.1.9.9,1.5,1.9,2,3,.4,1.1.7,2.4.7,3.6s-.2,2.6-.7,3.7c-.4,1.1-1.1,2.1-2,3-.9.9-2,1.5-3.3,2-1.3.5-2.8.8-4.6.8h-5.3ZM594.3,661.3h5.3c1.1,0,1.8-.3,2.4-.9.5-.6.8-1.4.8-2.2s-.3-1.7-.8-2.3c-.5-.7-1.3-1-2.3-1h-5.3v6.5Z"/>
            <path d="M632.7,670.3h-11.7l-1.7,4.3h-7.8l11.7-26.1h7.5l11.6,26.1h-7.9l-1.7-4.3ZM626.9,655.8l-3.4,8.3h6.7l-3.3-8.3Z"/>
            <path d="M663,662.7c0-.8,0-1.4-.1-2,0-.6,0-1,0-1.4,0-.4,0-.8,0-1v-9.8h7.4v26.1h-6.3l-10.9-14v5.7c.1,0,.1,8.4.1,8.4h-7.5v-26.1h6.3l11,14.3Z"/>
            <path d="M687.6,657.4l5.6-8.9h8.3v.3l-10.3,15.4v10.4h-7.4v-10.4l-9.9-15.4v-.3h8.3l5.4,8.9Z"/>
          </g>
        </g>
      </g>
    </g>
  </g>
</svg>